<svg width="160" height="50" viewBox="0 0 160 50" fill="none" xmlns="http://www.w3.org/2000/svg">
<g clip-path="url(#clip0_3023_454)">
<path d="M157.682 49.9427C158.983 49.9427 159.789 49.1821 159.789 48.0499C159.789 46.9178 158.965 46.4048 157.699 46.02C156.612 45.6883 156.301 45.5291 156.301 44.9675C156.301 44.4589 156.647 44.1537 157.256 44.1537C158.028 44.1537 158.374 44.5208 159.079 45.6176L159.298 45.5645L159.141 43.7248H158.847L158.654 44.1007C158.37 43.8972 157.901 43.654 157.256 43.654C156.113 43.654 155.398 44.3439 155.398 45.3522C155.398 46.4402 156.135 46.9134 157.353 47.2981C158.488 47.6563 158.803 47.8686 158.803 48.4966C158.803 49.1246 158.334 49.443 157.66 49.443C156.731 49.443 156.341 48.9963 155.482 47.5502L155.232 47.621L155.434 49.872H155.762L155.977 49.3634C156.341 49.6685 156.897 49.9427 157.677 49.9427M148.12 49.9604H148.738L150.083 46.0289L151.551 49.9604H152.169L154.132 44.2422L154.833 44.0388V43.7248H152.699V44.0388L153.453 44.2422L152.239 48.4789L150.71 44.2422L151.507 44.0388V43.7248H148.825V44.0388L149.426 44.2422L149.816 45.2947L148.834 48.4303L147.393 44.2422L148.111 44.0388V43.7248H145.403V44.0388L146.021 44.2422L148.12 49.9604ZM139.492 49.872H144.803L145.044 47.7006L144.811 47.6563L143.777 49.3722L141.591 49.5049V46.9222L142.581 46.9841L142.945 47.8421H143.212V45.538H142.945L142.581 46.4667L141.591 46.5375V44.0609L143.475 44.2201L144.43 45.6485L144.641 45.6043L144.457 43.7203H139.492V44.0343L140.272 44.2378V49.3457L139.492 49.5491V49.8631V49.872ZM137.524 49.9604H138.063V44.2422L138.773 44.0388V43.7248H136.543V44.0388L137.384 44.2422L137.634 48.0146L134.544 43.7248H132.384V44.0388L133.164 44.2422V49.3501L132.384 49.5536V49.8676H134.711V49.5536L133.852 49.3501L133.558 44.5606L137.524 49.956V49.9604ZM129.203 49.872H129.505V47.5679L130.132 47.36V47.046H127.467V47.36L128.256 47.5679V49.1113C127.963 49.3192 127.621 49.443 127.204 49.443C126.061 49.443 125.434 48.9167 125.434 46.8868C125.434 44.68 126.078 44.1714 127.099 44.1714C127.914 44.1714 128.348 44.5827 129.119 45.8873L129.356 45.8254L129.146 43.7248H128.896L128.681 44.1626C128.326 43.9105 127.892 43.654 127.069 43.654C125.272 43.654 124.023 45.1709 124.023 46.7984C124.023 48.5054 125.167 49.9427 126.972 49.9427C127.77 49.9427 128.37 49.5934 128.795 49.1025L129.203 49.872ZM122.042 49.9604H122.581V44.2422L123.291 44.0388V43.7248H121.061V44.0388L121.902 44.2422L122.152 48.0146L119.063 43.7248H116.902V44.0388L117.682 44.2422V49.3501L116.902 49.5536V49.8676H119.229V49.5536L118.37 49.3501L118.077 44.5606L122.042 49.956V49.9604ZM113.103 49.872H116.105V49.558L115.263 49.3546V44.2466L116.105 44.0432V43.7292H113.103V44.0432L113.944 44.2466V49.3546L113.103 49.558V49.872ZM108.506 44.2157H109.216C110.136 44.2157 110.404 44.4014 110.404 45.4318C110.404 46.4623 110.145 46.6922 109.085 46.6922H108.511V44.2201L108.506 44.2157ZM111.048 49.872H112.533V49.558L111.968 49.3546L111.35 48.0676C110.995 47.3158 110.579 47.0681 109.952 46.9885V46.9709C110.995 46.8116 111.74 46.3384 111.74 45.4274C111.74 44.3041 110.724 43.7292 109.343 43.7292H106.412V44.0432L107.192 44.2466V49.3546L106.412 49.558V49.872H109.299V49.558L108.511 49.3546V47.1566H108.962C109.795 47.1566 109.812 47.36 110.583 49.5934C110.645 49.8012 110.767 49.872 111.052 49.872M100.198 49.872H105.509L105.75 47.7006L105.518 47.6563L104.484 49.3722L102.297 49.5049V46.9222L103.287 46.9841L103.651 47.8421H103.918V45.538H103.651L103.287 46.4667L102.297 46.5375V44.0609L104.181 44.2201L105.137 45.6485L105.351 45.6043L105.163 43.7203H100.198V44.0343L100.978 44.2378V49.3457L100.198 49.5491V49.8631V49.872ZM93.9843 49.872H99.2953L99.532 47.7006L99.3041 47.6563L98.2699 49.3722L96.0833 49.5049V46.9222L97.0736 46.9841L97.4373 47.8421H97.7047V45.538H97.4373L97.0736 46.4667L96.0833 46.5375V44.0609L97.9676 44.2201L98.9229 45.6485L99.1332 45.6043L98.9491 43.7203H93.9843V44.0343L94.7643 44.2378V49.3457L93.9843 49.5491V49.8631V49.872ZM92.0168 49.9604H92.5558V44.2422L93.2656 44.0388V43.7248H91.0352V44.0388L91.8765 44.2422L92.1263 48.0146L89.037 43.7248H86.8766V44.0388L87.6566 44.2422V49.3501L86.8766 49.5536V49.8676H89.2035V49.5536L88.3446 49.3501L88.051 44.5606L92.0168 49.956V49.9604ZM83.0774 49.872H86.0791V49.558L85.2378 49.3546V44.2466L86.0791 44.0432V43.7292H83.0774V44.0432L83.9188 44.2466V49.3546L83.0774 49.558V49.872ZM81.4561 49.872H81.7584V47.5679L82.3895 47.36V47.046H79.7252V47.36L80.5139 47.5679V49.1113C80.2203 49.3192 79.8785 49.443 79.4622 49.443C78.3229 49.443 77.6919 48.9167 77.6919 46.8868C77.6919 44.68 78.3405 44.1714 79.3571 44.1714C80.1721 44.1714 80.606 44.5827 81.3772 45.8873L81.6182 45.8254L81.4035 43.7248H81.1537L80.9434 44.1626C80.5884 43.9105 80.1546 43.654 79.3308 43.654C77.5342 43.654 76.2853 45.1709 76.2853 46.7984C76.2853 48.5054 77.429 49.9427 79.2344 49.9427C80.0319 49.9427 80.6323 49.5934 81.0573 49.1025L81.4648 49.872H81.4561ZM74.2958 49.9604H74.8348V44.2422L75.5447 44.0388V43.7248H73.3143V44.0388L74.1556 44.2422L74.4054 48.0146L71.3161 43.7248H69.1557V44.0388L69.9357 44.2422V49.3501L69.1557 49.5536V49.8676H71.4826V49.5536L70.6237 49.3501L70.3301 44.5606L74.2958 49.956V49.9604ZM62.942 49.872H68.253L68.494 47.7006L68.2618 47.6563L67.2276 49.3722L65.041 49.5049V46.9222L66.0313 46.9841L66.395 47.8421H66.6623V45.538H66.395L66.0313 46.4667L65.041 46.5375V44.0609L66.9253 44.2201L67.8805 45.6485L68.0953 45.6043L67.9068 43.7203H62.942V44.0343L63.722 44.2378V49.3457L62.942 49.5491V49.8631V49.872ZM56.6888 47.1124L58.0955 48.9521C57.7405 49.2396 57.333 49.3722 56.9167 49.3722C56.1367 49.3722 55.5977 48.9963 55.5977 47.9261C55.5977 47.0947 55.7905 46.7011 56.2243 46.4623C56.347 46.6569 56.5004 46.8824 56.6844 47.1124M56.794 44.8038C56.794 44.2687 56.9868 44.0786 57.2453 44.0786C57.5039 44.0786 57.7055 44.2289 57.7055 44.8658C57.7055 45.339 57.5477 45.5999 57.184 45.8387L57.1314 45.7679C56.9386 45.5159 56.794 45.1974 56.794 44.8038ZM56.5486 49.9427C57.2585 49.9427 57.8501 49.7172 58.3452 49.2838L58.4416 49.3988C58.7615 49.8189 59.1603 49.9339 59.6029 49.9339C60.1068 49.9339 60.4179 49.757 60.6809 49.5757V49.3413C59.9272 49.3059 59.7606 49.2175 59.5941 48.9831L59.1077 48.3507C59.4276 47.8509 59.6993 47.2362 59.9578 46.5109L60.7203 46.2986V46.0377H58.7396V46.2986L59.34 46.5109C59.226 47.0991 59.0464 47.6033 58.8448 48.0013L57.3856 46.0996C58.0779 45.8033 58.538 45.3478 58.538 44.7862C58.538 44.1449 57.9552 43.6496 57.2366 43.6496C56.3514 43.6496 55.7774 44.3041 55.7774 45.1223C55.7774 45.4363 55.8562 45.7679 56.071 46.1571C54.9097 46.533 54.2831 47.2008 54.2831 48.1561C54.2831 49.1113 55.0982 49.9339 56.5574 49.9339M46.8818 49.872H51.873L52.1578 47.6121L51.9256 47.559L50.8344 49.3546L48.9765 49.5138V44.2422L49.7915 44.0388V43.7248H46.8775V44.0388L47.6575 44.2422V49.3501L46.8775 49.5536V49.8676L46.8818 49.872ZM41.6497 47.1566L42.5086 44.9586L43.3762 47.1566H41.6497ZM39.3842 49.872H41.5621V49.558L40.7908 49.3546L41.4569 47.6475H43.5734L44.2482 49.3546L43.4595 49.558V49.872H46.2815V49.558L45.6373 49.3546L43.2667 43.6363H42.64L40.1248 49.3546L39.3886 49.558V49.872H39.3842ZM36.755 49.9427C37.8461 49.9427 38.6392 49.443 39.1607 48.5408L38.8496 48.3064C38.4333 48.9654 37.7541 49.443 36.9215 49.443C35.769 49.443 35.1774 48.9079 35.1774 46.8868C35.1774 44.6977 35.7164 44.1714 36.7637 44.1714C37.4911 44.1714 37.9337 44.4766 38.8014 46.0731L39.0249 46.02L38.8408 43.7248H38.5823L38.3456 44.1537C37.9907 43.9149 37.5569 43.654 36.7593 43.654C34.989 43.654 33.7138 45.1709 33.7138 46.7984C33.7138 48.5054 34.954 49.9427 36.7593 49.9427M29.8927 49.872H32.8944V49.558L32.053 49.3546V44.2466L32.8944 44.0432V43.7292H29.8927V44.0432L30.7341 44.2466V49.3546L29.8927 49.558V49.872ZM21.2733 49.872H23.3985V49.558L22.6974 49.3546L22.4389 44.4677L24.5554 49.6685H25.0593L26.9962 44.4677V49.3546L26.3082 49.558V49.872H29.0952V49.558L28.3152 49.3546V44.2466L29.0952 44.0432V43.7292H26.707L25.2127 47.9924L23.5563 43.7292H21.2733V44.0432L22.0533 44.2466V49.3546L21.2733 49.558V49.872ZM15.0595 49.872H20.3706L20.6116 47.7006L20.3793 47.6563L19.3452 49.3722L17.1585 49.5049V46.9222L18.1489 46.9841L18.5126 47.8421H18.7799V45.538H18.5126L18.1489 46.4667L17.1585 46.5375V44.0609L19.0428 44.2201L19.9981 45.6485L20.2128 45.6043L20.0288 43.7203H15.0639V44.0343L15.8439 44.2378V49.3457L15.0639 49.5491V49.8631L15.0595 49.872ZM7.43918 49.872H10.27V49.558L9.53379 49.3546V47.0328H12.1718V49.3546L11.4181 49.558V49.872H14.2664V49.558L13.4864 49.3546V44.2466L14.2664 44.0432V43.7292H11.4181V44.0432L12.1718 44.2466V46.5419H9.53379V44.2466L10.27 44.0432V43.7292H7.43918V44.0432L8.21918 44.2466V49.3546L7.43918 49.558V49.872ZM4.31479 49.9427C5.40591 49.9427 6.19906 49.443 6.72052 48.5408L6.4094 48.3064C5.9931 48.9654 5.31389 49.443 4.4813 49.443C3.32883 49.443 2.73726 48.9079 2.73726 46.8868C2.73726 44.6977 3.27624 44.1714 4.32355 44.1714C5.05097 44.1714 5.49355 44.4766 6.3612 46.0731L6.5803 46.02L6.39625 43.7248H6.13771L5.8967 44.1537C5.54176 43.9149 5.10793 43.654 4.3104 43.654C2.54006 43.654 1.26489 45.1709 1.26489 46.7984C1.26489 48.5054 2.50501 49.9427 4.3104 49.9427" fill="#EB141C"/>
<path d="M117.699 40.3132H136.875V36.2916H133.434V14.3431C135.924 12.2929 138.413 11.4167 141.192 11.4167C143.826 11.4167 144.997 12.2228 144.997 15.2193V36.2916H141.481V40.3132H160V36.2916H155.976V15.6618C155.976 8.27118 151.953 3.66245 145.654 3.66245C139.943 3.66245 135.7 7.61404 131.966 13.0289L131.821 12.9544L132.921 4.10054H130.432L116.963 9.58546V11.1933L122.455 14.3388V36.2872H117.694V40.3089L117.699 40.3132ZM99.2549 7.68414C102.621 7.68414 103.866 10.0236 104.234 17.5587H93.1799C93.7673 8.99841 96.0333 7.68414 99.2549 7.68414ZM98.8867 40.8959C105.255 40.8959 110.379 38.1885 113.601 35.4811L112.211 32.9183C109.283 34.0179 106.206 34.8941 102.257 34.8941C95.3013 34.8941 93.1054 32.1866 93.1054 21.8696V21.725H115.284C114.845 9.36203 108.332 3.65369 99.3995 3.65369C88.7136 3.65369 81.2448 11.9205 81.2448 22.7501C81.2448 32.9927 86.8814 40.8959 98.8867 40.8959ZM47.6529 19.3155C48.3103 20.2661 49.0423 21.2913 49.9233 22.3865L59.5836 34.456C57.7559 35.1131 55.8492 35.4066 53.8725 35.4066C48.0167 35.4066 45.4569 32.9183 45.4569 26.5528C45.4569 22.0886 46.1889 20.3319 47.6529 19.3111M56.8749 13.9751L56.7302 13.8306C55.2663 11.9293 54.5343 10.247 54.5343 7.75861C54.5343 5.27025 55.8536 3.8815 57.5367 3.8815C59.0752 3.8815 60.3901 5.34473 60.3901 8.34566C60.3901 11.3466 59.2198 12.6609 56.8749 13.9795M67.5608 27.2888L58.7771 16.389C64.4883 14.5622 67.5608 11.7058 67.5608 7.53519C67.5608 3.36455 63.5328 0 57.1641 0C49.3316 0 44.4269 4.75768 44.4269 10.3171C44.4269 12.2184 44.8652 14.2687 46.11 16.6826C37.471 18.9519 33.2281 22.9736 33.2281 29.12C33.2281 35.2664 38.8648 40.8258 49.7699 40.8258C54.3809 40.8258 58.5536 39.7262 62.2135 37.5314C64.8477 39.9453 67.6309 40.7513 70.7035 40.7513C74.657 40.7513 77.9487 39.2136 79.7808 37.8249V35.5556C74.5124 35.3365 73.4122 34.6049 72.3165 33.2162L69.9759 30.2897C72.0272 27.5823 73.7804 24.3623 75.2444 20.5597L79.7107 19.0964V16.389H66.3905V19.0964L69.8313 20.5597C69.3184 23.1926 68.5865 25.4619 67.5608 27.2888ZM18.8867 40.8959C24.5233 40.8959 28.8407 38.482 32.0622 35.8491L30.6728 33.2906C27.9641 34.2413 25.4043 35.0474 21.7445 35.0474C16.0333 35.0474 12.2288 32.9971 12.2288 21.4402C12.2288 9.88336 15.4504 7.83309 21.0125 7.83309C23.5021 7.83309 24.817 8.12661 25.8426 8.42013V8.5647C23.4276 9.29632 21.67 11.5656 21.67 14.1241C21.67 16.906 24.085 19.1008 27.0129 19.1008C30.5282 19.1008 32.5751 16.1744 32.5751 13.3925C32.5751 7.17157 27.2321 3.66245 19.474 3.66245C7.1751 3.65807 0 12.8054 0 22.461C0 32.1165 6.00044 40.8959 18.8867 40.8959Z" fill="#EB141C"/>
</g>
<defs>
<clipPath id="clip0_3023_454">
<rect width="160" height="49.9605" fill="white"/>
</clipPath>
</defs>
</svg>
